<?xml version="1.0" encoding="UTF-8" standalone="no"?>
<svg
   xmlns:dc="http://purl.org/dc/elements/1.1/"
   xmlns:cc="http://creativecommons.org/ns#"
   xmlns:rdf="http://www.w3.org/1999/02/22-rdf-syntax-ns#"
   xmlns:svg="http://www.w3.org/2000/svg"
   xmlns="http://www.w3.org/2000/svg"
   xmlns:xlink="http://www.w3.org/1999/xlink"
   id="svg1020"
   version="1.1"
   viewBox="0 0 210 297"
   height="297mm"
   width="210mm">
  <defs
     id="defs1014">
    <path
       d="M253.95 200.83L253.95 78.67L354.95 78.67L353.95 125.83L278.95 125.83L278.95 200.83L328.95 200.83L328.95 175.83L303.95 175.83L303.95 150.83L353.95 150.83L354.95 200.83L378.95 200.83L378.95 78.67L453.95 78.67L453.95 378.67L378.95 378.67L378.95 253.67L353.95 253.67L353.95 378.67L253.95 378.67L253.95 253.67L228.95 253.67L228.95 378.67L153.95 378.67L153.95 78.67L228.95 78.67L228.95 200.83L253.95 200.83ZM328.95 253.67L278.95 253.67L278.95 328.67L328.95 328.67L328.95 253.67ZM328.95 253.67L328.84 253.85L289.93 312.34L278.95 328.67L328.84 253.85L328.95 253.67L328.95 253.67Z"
       id="aPgr9vzft" />
  </defs>
  <metadata
     id="metadata1017">
    <rdf:RDF>
      <cc:Work
         rdf:about="">
        <dc:format>image/svg+xml</dc:format>
        <dc:type
           rdf:resource="http://purl.org/dc/dcmitype/StillImage" />
        <dc:title></dc:title>
      </cc:Work>
    </rdf:RDF>
  </metadata>
  <g
     id="layer1">
    <g
       transform="matrix(0.67566081,0,0,0.97143913,-100.60286,-72.771016)"
       id="g1135">
      <g
         id="g1133">
        <g
           id="g1131">
          <use
             height="100%"
             width="100%"
             y="0"
             x="0"
             style="opacity:1;fill:#000000;fill-opacity:1"
             xlink:href="#aPgr9vzft"
             id="use1129" />
        </g>
      </g>
    </g>
  </g>
</svg>
